<?xml version="1.0" encoding="UTF-8" standalone="no"?>
<svg
   viewBox="0 0 64 64"
   version="1.1"
   id="svg334"
   sodipodi:docname="Extension.svg"
   inkscape:version="1.2.2 (b0a8486541, 2022-12-01)"
   xml:space="preserve"
   inkscape:export-filename="Extension.png"
   inkscape:export-xdpi="1500"
   inkscape:export-ydpi="1500"
   xmlns:inkscape="http://www.inkscape.org/namespaces/inkscape"
   xmlns:sodipodi="http://sodipodi.sourceforge.net/DTD/sodipodi-0.dtd"
   xmlns:xlink="http://www.w3.org/1999/xlink"
   xmlns="http://www.w3.org/2000/svg"
   xmlns:svg="http://www.w3.org/2000/svg"><defs
     id="defs338"><linearGradient
       inkscape:collect="always"
       id="linearGradient1200"><stop
         style="stop-color:#9b1526;stop-opacity:1;"
         offset="0"
         id="stop1196" /><stop
         style="stop-color:#ca1428;stop-opacity:1;"
         offset="1"
         id="stop1198" /></linearGradient><linearGradient
       inkscape:collect="always"
       xlink:href="#linearGradient1200"
       id="linearGradient1202"
       x1="0"
       y1="64"
       x2="64"
       y2="0"
       gradientUnits="userSpaceOnUse" /></defs><sodipodi:namedview
     id="namedview336"
     pagecolor="#ffffff"
     bordercolor="#666666"
     borderopacity="1.0"
     inkscape:showpageshadow="2"
     inkscape:pageopacity="0.0"
     inkscape:pagecheckerboard="0"
     inkscape:deskcolor="#d1d1d1"
     showgrid="false"
     showguides="true"
     inkscape:zoom="5.2149126"
     inkscape:cx="45.830107"
     inkscape:cy="43.529013"
     inkscape:window-width="1440"
     inkscape:window-height="831"
     inkscape:window-x="0"
     inkscape:window-y="0"
     inkscape:window-maximized="1"
     inkscape:current-layer="svg334" /><path
     fill="#FF8700"
     d="M0 0h64v64H0z"
     id="path330"
     style="fill:url(#linearGradient1202);fill-opacity:1" /><path
     id="path297"
     style="color:#000000;fill:#ffffff;stroke-linecap:round;stroke-linejoin:round;-inkscape-stroke:none;paint-order:fill markers stroke"
     d="m 31.999023,11.238411 c -7.924509,0 -14.412109,6.4876 -14.412109,14.41211 0,4.367823 2.107162,9.758079 4.580078,15.083984 1.236458,2.662952 2.589129,5.219769 3.914062,7.371094 1.324934,2.151324 2.490591,3.852051 3.996094,5.109375 a 3.0003,3.0003 0 0 0 3.845703,0 c 1.505654,-1.257302 2.669198,-2.958056 3.994141,-5.109375 1.324941,-2.151321 2.677604,-4.706163 3.914062,-7.369141 2.472918,-5.325956 4.582032,-10.718114 4.582032,-15.085937 0,-7.92451 -6.489554,-14.41211 -14.414063,-14.41211 z m 0,6 c 4.681875,0 8.414063,3.730234 8.414063,8.41211 0,1.93537 -1.726588,7.611835 -4.023438,12.558593 -1.148425,2.47338 -2.413831,4.856355 -3.580078,6.75 -0.345788,0.561459 -0.481591,0.61675 -0.810547,1.082031 -0.328707,-0.464994 -0.463103,-0.521049 -0.808594,-1.082031 -1.166255,-1.893675 -2.433605,-4.276641 -3.582031,-6.75 -2.296852,-4.946717 -4.021484,-10.623224 -4.021484,-12.558593 0,-4.681876 3.730234,-8.41211 8.412109,-8.41211 z m 0,3.517578 c -2.680257,0 -4.896484,2.214274 -4.896484,4.894532 0,2.680258 2.216227,4.896484 4.896484,4.896484 2.680257,0 4.896484,-2.216226 4.896484,-4.896484 0,-2.680258 -2.216227,-4.894532 -4.896484,-4.894532 z m 0,4 c 0.518501,0 0.896484,0.376031 0.896484,0.894532 0,0.518501 -0.377983,0.896484 -0.896484,0.896484 -0.518501,0 -0.896484,-0.377983 -0.896484,-0.896484 0,-0.518501 0.377983,-0.894532 0.896484,-0.894532 z" /></svg>
