<?xml version="1.0" encoding="UTF-8" standalone="no"?>
<!-- Created with Inkscape (http://www.inkscape.org/) -->

<svg
   width="16"
   height="16"
   viewBox="0 0 16 16.000001"
   version="1.1"
   id="svg857"
   xml:space="preserve"
   inkscape:version="1.3 (0e150ed6c4, 2023-07-21)"
   sodipodi:docname="Geometry.svg"
   xmlns:inkscape="http://www.inkscape.org/namespaces/inkscape"
   xmlns:sodipodi="http://sodipodi.sourceforge.net/DTD/sodipodi-0.dtd"
   xmlns="http://www.w3.org/2000/svg"
   xmlns:svg="http://www.w3.org/2000/svg"><sodipodi:namedview
     id="namedview859"
     pagecolor="#ffffff"
     bordercolor="#666666"
     borderopacity="1.0"
     inkscape:showpageshadow="2"
     inkscape:pageopacity="0.0"
     inkscape:pagecheckerboard="0"
     inkscape:deskcolor="#d1d1d1"
     inkscape:document-units="px"
     showgrid="true"
     inkscape:zoom="38.057741"
     inkscape:cx="8.1192418"
     inkscape:cy="7.501759"
     inkscape:window-width="1920"
     inkscape:window-height="1163"
     inkscape:window-x="0"
     inkscape:window-y="0"
     inkscape:window-maximized="1"
     inkscape:current-layer="layer1"
     showguides="true"><inkscape:grid
       type="xygrid"
       id="grid987"
       spacingx="1"
       spacingy="1"
       originx="0"
       originy="0"
       units="px"
       visible="true" /></sodipodi:namedview><defs
     id="defs854"><symbol
       viewBox="0 0 16 16"
       id="content-beside-text-img-above-center"><path
         fill="#ffffff"
         d="M 1,1 H 15 V 15 H 1 Z"
         id="path13216" /><path
         fill="#999999"
         d="M 14,2 V 14 H 2 V 2 H 14 M 15,1 H 1 v 14 h 14 z"
         id="path13218" /><path
         fill="#5599ff"
         d="m 5,3 h 6 V 9 H 5 Z"
         id="path13220" /><path
         fill="#ffffff"
         d="M 9,8 H 6 L 6.75,7 7.5,6 8.25,7 Z"
         id="path13222" /><path
         fill="#ffffff"
         d="M 10,8 H 7.333 L 8,7.333 8.667,6.667 9.333,7.333 Z"
         id="path13224" /><circle
         cx="9.5"
         cy="5.5"
         r="0.5"
         fill="#ffffff"
         id="circle13226" /><g
         id="g13232"><path
           fill="#b9b9b9"
           d="m 3,12 h 10 v 1 H 3 Z"
           id="path13228" /><path
           fill="#666666"
           d="m 3,10 h 10 v 1 H 3 Z"
           id="path13230" /></g></symbol><symbol
       viewBox="0 0 16 16"
       id="content-beside-text-img-above-right"><path
         fill="#ffffff"
         d="M 1,1 H 15 V 15 H 1 Z"
         id="path13254" /><path
         fill="#999999"
         d="M 14,2 V 14 H 2 V 2 H 14 M 15,1 H 1 v 14 h 14 z"
         id="path13256" /><path
         fill="#5599ff"
         d="m 7,3 h 6 V 9 H 7 Z"
         id="path13258" /><path
         fill="#ffffff"
         d="M 11,8 H 8 L 8.75,7 9.5,6 10.25,7 Z"
         id="path13260" /><path
         fill="#ffffff"
         d="M 12,8 H 9.333 L 10,7.333 10.667,6.667 11.333,7.333 Z"
         id="path13262" /><circle
         cx="11.5"
         cy="5.5"
         r="0.5"
         fill="#ffffff"
         id="circle13264" /><g
         id="g13270"><path
           fill="#b9b9b9"
           d="m 3,12 h 10 v 1 H 3 Z"
           id="path13266" /><path
           fill="#666666"
           d="m 3,10 h 10 v 1 H 3 Z"
           id="path13268" /></g></symbol></defs><g
     inkscape:label="Layer 1"
     inkscape:groupmode="layer"
     id="layer1"><path
       id="path377"
       style="fill:#ffffff;fill-opacity:1;stroke:#ec6374;stroke-width:1px;stroke-linecap:round;stroke-linejoin:round;stroke-opacity:1"
       d="M 6.5332031 1.5019531 L 2.5175781 3.5585938 L 4.4863281 6.5019531 L 0.5078125 9.5117188 L 2.5234375 14.464844 L 8.4726562 13.462891 L 10.498047 10.511719 L 15.5 12.513672 L 14.460938 9.5058594 L 15.5 6.5039062 L 11.490234 2.546875 L 6.5332031 1.5019531 z " /><path
       id="path1"
       style="fill:#ffffff;fill-opacity:1;stroke:#ab1527;stroke-width:1px;stroke-linecap:round;stroke-linejoin:round;stroke-opacity:1"
       d="M 15.5,6.5039062 11.490234,2.546875 6.5332031,1.5019531 2.5175781,3.5585938"
       sodipodi:nodetypes="cccc" /></g></svg>
